<?xml version="1.0" encoding="utf-8"?>
<!-- Generator: Adobe Illustrator 19.2.1, SVG Export Plug-In . SVG Version: 6.00 Build 0)  -->
<svg version="1.1" id="Calque_1" xmlns="http://www.w3.org/2000/svg" xmlns:xlink="http://www.w3.org/1999/xlink" x="0px" y="0px"
	 viewBox="0 0 160.2 141.7" style="enable-background:new 0 0 160.2 141.7;" xml:space="preserve">
<style type="text/css">
	.st0{fill:#D72041;}
	.st1{fill:none;stroke:#FFFFFF;stroke-width:1.6471;stroke-miterlimit:10;}
</style>
<rect x="0" class="st0" width="160.2" height="141.7"/>
<g>
	<ellipse id="XMLID_14_" class="st1" cx="39.4" cy="108.1" rx="27.6" ry="9.8"/>
	<path id="XMLID_19_" class="st1" d="M39.4,34.2c-15.4,0-27.9,8.7-27.9,19.6v52.5c0,4.3,12.4,7.8,27.6,7.8c15.3,0,27.6-3.5,27.6-7.8
		l0,0l0.4-52.5C67.2,42.9,54.8,34.2,39.4,34.2z"/>
	<polygon id="XMLID_16_" class="st1" points="57.9,67.5 44.6,67.5 44.6,54.4 34.1,54.4 34.1,67.5 20.9,67.5 20.9,78.1 34.1,78.1 
		34.1,91.4 44.6,91.4 44.6,78.1 57.9,78.1 	"/>
</g>
</svg>
