<?xml version="1.0" encoding="utf-8"?>
<!-- Generator: Adobe Illustrator 19.2.1, SVG Export Plug-In . SVG Version: 6.00 Build 0)  -->
<svg version="1.1" id="Calque_1" xmlns="http://www.w3.org/2000/svg" xmlns:xlink="http://www.w3.org/1999/xlink" x="0px" y="0px"
	 viewBox="0 0 141.7 141.7" style="enable-background:new 0 0 141.7 141.7;" xml:space="preserve">
<style type="text/css">
	.st0{fill:#FFFFFF;stroke:#010202;stroke-width:2.3241;stroke-miterlimit:10;}
	.st1{fill:none;stroke:#010202;stroke-width:2.3241;stroke-miterlimit:10;}
</style>
<ellipse id="XMLID_14_" class="st0" cx="70.9" cy="118.2" rx="39" ry="13.8"/>
<path id="XMLID_19_" class="st0" d="M70.9,13.9c-21.7,0-39.3,12.3-39.3,27.6v74.1c0,6.1,17.5,11,39,11c21.6,0,39-4.9,39-11h0
	l0.5-74.1C110.1,26.2,92.6,13.9,70.9,13.9z"/>
<polygon id="XMLID_16_" class="st1" points="97,60.9 78.3,60.9 78.3,42.3 63.4,42.3 63.4,60.9 44.8,60.9 44.8,75.8 63.4,75.8 
	63.4,94.5 78.3,94.5 78.3,75.8 97,75.8 "/>
</svg>
