<?xml version="1.0" encoding="utf-8"?>
<!-- Generator: Adobe Illustrator 19.2.1, SVG Export Plug-In . SVG Version: 6.00 Build 0)  -->
<svg version="1.1" id="Calque_1" xmlns="http://www.w3.org/2000/svg" xmlns:xlink="http://www.w3.org/1999/xlink" x="0px" y="0px"
	 viewBox="0 0 141.7 141.7" style="enable-background:new 0 0 141.7 141.7;" xml:space="preserve">
<style type="text/css">
	.st0{fill:#FFFFFF;}
</style>
<g>
	<g>
		<g>
			<polygon points="102.3,91 132.4,88.6 111.2,70.2 130,55.4 106.5,52.6 112.5,30.2 82.9,41.5 69.7,19.7 59,37.4 38.1,27.4 
				41.8,51.5 9.4,55.4 29.6,71.4 11.9,84.2 37.6,88.2 32.4,113 59.1,101.6 70.2,122 83.1,102.8 106.9,113 			"/>
		</g>
		<g>
			<polygon class="st0" points="61.6,96.7 37.8,106.9 42.3,85.2 21.1,81.9 35.6,71.3 18,57.3 46.8,53.9 43.6,33 60.9,41.3 
				69.7,26.6 81.1,45.4 107.4,35.4 102.2,55 121.5,57.3 106,69.6 124.4,85.7 97.7,87.8 101.7,106.9 81.9,98.4 71.1,114.4 			"/>
		</g>
	</g>
	<g>
		<g>
			<path d="M56.1,70c0.1,0.3,0.2,0.7,0.3,1c0.2,1.3-0.1,2.6-0.9,3.9c-0.5,0.8-1.4,1.8-2.7,3c-1,0.9-2.2,2.2-2.6,2.2
				c-0.2,0-2.5-0.6-2.8-1c-0.2-0.3,0.2-3.1,0.1-5.7c0-2.2-0.6-5.5-0.1-6.7c0.5-1.2,3.2-2.3,4.3-2.5c0.7-0.1,1.3-0.1,1.9,0
				c0.7,0.2,1,0.5,1.1,1c0.1,0.7-0.1,1.5-0.6,2.3c-0.5,0.6-1.5,1.9-1.5,1.9c0,0,1-0.4,1.4-0.5C55.1,68.8,55.8,69.2,56.1,70z
				 M53,72.5c0-0.4-0.2-0.7-0.6-0.9c-0.3-0.2-0.7-0.3-1.1-0.2c-0.2,0-0.6,0.2-0.6,0.3c-0.5,1.1,0.2,4.4,0.2,4.4c0.1,0,1-1.3,1.4-2
				C52.9,73.5,53.1,72.9,53,72.5z M51.9,67c0-0.1,0-0.1,0-0.2c-0.1-0.5-0.4-0.6-1.1-0.5c-0.1,0-0.3,0.1-0.5,0.1
				c-0.2,0.1-0.3,0.1-0.3,0.1c0.2,1.3,0.3,1.9,0.4,3.3C51.4,68.5,51.9,67.6,51.9,67z"/>
			<path d="M66.9,68.9c0.3,2.3,0.1,4.2-0.7,5.6c-0.9,1.7-2.3,2.6-4.2,2.7c-1.2,0.1-2.3-0.4-3.2-1.4c-0.9-1-1.4-2.2-1.6-3.6
				c0-0.3-0.1-0.5-0.1-0.8c0-2.5,0.4-4.5,1.3-6c0.9-1.5,2.2-2.4,4-2.6c2.5-0.3,4,1.4,4.4,4.8c0,0.2,0.1,0.4,0.1,0.7
				C66.9,68.7,66.9,68.8,66.9,68.9z M63.6,70.4c0-0.7-0.1-1.6-0.2-2.6c-0.3-2-0.6-2.9-1-2.8c-0.7,0.2-1.2,1-1.6,2.6
				c-0.2,1-0.3,2-0.4,3.1c0,0.4,0,0.8,0.1,1.1c0.1,0.9,0.4,1.7,0.9,2.3c0.4,0.5,0.7,0.7,1,0.6c0.3-0.1,0.6-0.4,0.8-1.1
				C63.5,72.8,63.6,71.7,63.6,70.4z"/>
			<path d="M77.7,69.1c0.3,2.3,0.1,4.1-0.7,5.5c-0.9,1.5-2.3,2.3-4.2,2.2c-1.2,0-2.3-0.6-3.3-1.8c-0.9-1.1-1.4-2.3-1.6-3.7
				c0-0.3-0.1-0.5-0.1-0.8c0-2.5,0.4-4.4,1.3-5.8c0.9-1.4,2.3-2.1,4-2.1c2.5,0,4,1.8,4.4,5.2c0,0.2,0.1,0.4,0.1,0.7
				C77.7,68.9,77.7,69.1,77.7,69.1z M74.4,70.2c0-0.7-0.1-1.6-0.2-2.6c-0.3-2-0.6-3-1-2.9c-0.7,0.1-1.2,0.9-1.6,2.4
				c-0.2,1-0.3,2-0.4,3c0,0.4,0,0.8,0.1,1.1c0.1,0.9,0.4,1.7,0.9,2.3c0.4,0.5,0.7,0.8,1,0.7c0.3,0,0.6-0.4,0.8-1
				C74.3,72.6,74.4,71.5,74.4,70.2z"/>
			<path d="M90.6,63.9c0.2,0.2-0.1,5.2,0.6,10.9c0.2,1.7,0.7,3.8,0.6,3.9c-0.1,0.1-3.2,0.6-3.5,0.4c-0.2-0.2-0.3-1.7-0.4-2.5
				c-0.1-1.1-0.3-2.4-0.3-3.9c-0.1-1.3-0.2-3.8-0.2-3.8c0,0-1,8.6-1.2,8.7c0,0-0.2-0.1-0.4-0.1c-0.6-0.1-1.6,0.2-1.7,0.2
				c-0.5-0.3-0.6-4.4-0.6-4.6c-0.3-1.8-0.9-4.6-0.9-4.6c-0.1,0-0.6,5.4-0.4,7.3c0,0.2,0.1,0.5,0.1,0.6c-0.1,0.1-0.9,0.1-1.3,0.2
				c-0.6,0.1-1.2,0.7-1.3,0.7c-0.2,0-0.7-1.1-0.9-2.2c-0.3-2.5-0.4-9.1,1-10.7c0.4-0.4,1.9-0.5,2.4-0.6c1-0.3,2.4-0.7,2.4-0.7
				c0.3,0.2-0.1,4.1,0.1,5.7c0.1,0.7,0.4,1.8,0.4,1.8c0,0,0.4-2.1,0.7-3.1c0.3-1.2,0.5-2.5,0.8-2.8c0.1-0.1,0.9-0.2,1.9-0.4
				C89.5,64.1,90.6,63.9,90.6,63.9z"/>
			<path d="M94.2,79.8c-0.1,0-0.2,0-0.3-0.1c-0.8-0.2-1.3-0.8-1.5-1.8c-0.1-0.5,0.1-0.9,0.6-1.2c0.5-0.3,0.9-0.4,1.4-0.3
				c0.5,0.1,0.9,0.3,1.2,0.6c0.4,0.3,0.6,0.7,0.6,1c0.1,0.5-0.1,1-0.6,1.3C95.3,79.8,94.8,79.9,94.2,79.8z M98.4,66.1
				c0,0-0.6,1.6-1.7,4.3c-0.8,1.9-1.3,4.4-1.6,4.6C95,75.1,94.5,75,94.2,75c-0.5,0-1.1,0.1-1.1,0.1c-0.4-0.3-0.1-7.8,0.8-8.7
				c0.2-0.2,1.5-0.2,2.2-0.2C97,66,98.3,66,98.4,66.1z"/>
		</g>
	</g>
</g>
</svg>
