<?xml version="1.0" encoding="utf-8"?>
<!-- Generator: Adobe Illustrator 19.2.1, SVG Export Plug-In . SVG Version: 6.00 Build 0)  -->
<svg version="1.1" id="Calque_1" xmlns="http://www.w3.org/2000/svg" xmlns:xlink="http://www.w3.org/1999/xlink" x="0px" y="0px"
	 viewBox="0 0 182.6 141.7" style="enable-background:new 0 0 182.6 141.7;" xml:space="preserve">
<style type="text/css">
	.st0{fill:#FFB23E;}
	.st1{fill:none;stroke:#010202;stroke-linecap:round;stroke-linejoin:round;stroke-miterlimit:10;}
</style>
<rect y="0" class="st0" width="182.8" height="141.7"/>
<g id="XMLID_1_">
	<path id="XMLID_112_" class="st1" d="M174.7,81.1L174.7,81.1l-0.1-8.1c0-1.2-0.9-2.1-1.9-2.1H159V62c0-1.2-0.9-2.1-1.9-2.1h-62
		c-1.1,0-1.9,0.9-1.9,2.1v21.2c0,1.2,0.9,2.1,1.9,2.1h16.2c0,3.1,2.3,5.6,5.2,5.6s5.1-2.5,5.2-5.6h35.5c0.3,0,0.6-0.1,0.9-0.2
		c0.3,0.2,0.6,0.2,0.9,0.2h1.1c0,3.1,2.3,5.6,5.2,5.6s5.1-2.5,5.2-5.6h2.3l0,0h2c0.7,0,1.2-0.6,1.2-1.4v-1.5
		C176,81.7,175.4,81.1,174.7,81.1z"/>
	<path id="XMLID_20_" class="st1" d="M99.2,71.1h-0.3c-1.7,0-3.1-1.4-3.1-3.1v-0.9c0-1.7,1.4-3.1,3.1-3.1h0.3c1.7,0,3.1,1.4,3.1,3.1
		V68C102.3,69.7,100.9,71.1,99.2,71.1z"/>
	<path id="XMLID_21_" class="st1" d="M106.9,71.1h-0.3c-1.7,0-3.1-1.4-3.1-3.1v-0.9c0-1.7,1.4-3.1,3.1-3.1h0.3
		c1.7,0,3.1,1.4,3.1,3.1V68C110,69.7,108.6,71.1,106.9,71.1z"/>
	<path id="XMLID_23_" class="st1" d="M114.8,71.1h-0.3c-1.7,0-3.1-1.4-3.1-3.1v-0.9c0-1.7,1.4-3.1,3.1-3.1h0.3
		c1.7,0,3.1,1.4,3.1,3.1V68C117.8,69.7,116.4,71.1,114.8,71.1z"/>
	<path id="XMLID_24_" class="st1" d="M122.5,71.1h-0.3c-1.7,0-3.1-1.4-3.1-3.1v-0.9c0-1.7,1.4-3.1,3.1-3.1h0.3
		c1.7,0,3.1,1.4,3.1,3.1V68C125.6,69.7,124.3,71.1,122.5,71.1z"/>
	<path id="XMLID_25_" class="st1" d="M130.3,71.1H130c-1.7,0-3.1-1.4-3.1-3.1v-0.9c0-1.7,1.4-3.1,3.1-3.1h0.3c1.7,0,3.1,1.4,3.1,3.1
		V68C133.4,69.7,132,71.1,130.3,71.1z"/>
	<path id="XMLID_27_" class="st1" d="M138.1,71.1h-0.3c-1.7,0-3.1-1.4-3.1-3.1v-0.9c0-1.7,1.4-3.1,3.1-3.1h0.3
		c1.7,0,3.1,1.4,3.1,3.1V68C141.2,69.7,139.8,71.1,138.1,71.1z"/>
	<path id="XMLID_99_" class="st1" d="M155.6,85h-6.2c-1,0-1.9-0.9-1.9-1.9V65.9c0-1,0.9-1.9,1.9-1.9h6.2c1,0,1.9,0.9,1.9,1.9v17.2
		C157.5,84.2,156.6,85,155.6,85z"/>
	<line id="XMLID_108_" class="st1" x1="152.5" y1="64.1" x2="152.5" y2="85"/>
	<path id="XMLID_113_" class="st1" d="M142.3,68v-0.9c0-1.7,1.4-3.1,3.1-3.1h10.6c1.7,0,3.1,1.4,3.1,3.1V68c0,1.7-1.4,3.1-3.1,3.1
		h-10.7C143.7,71.1,142.3,69.7,142.3,68z"/>
	<line id="XMLID_114_" class="st1" x1="93.3" y1="73.9" x2="147.3" y2="73.9"/>
	<path id="XMLID_116_" class="st1" d="M111.5,83.9c-0.1-7.3,10-7.7,10,0"/>
	<path id="XMLID_115_" class="st1" d="M160.2,83.9c-0.1-7.3,10-7.7,10,0"/>
</g>
</svg>
