<?xml version="1.0" encoding="utf-8"?>
<!-- Generator: Adobe Illustrator 19.2.1, SVG Export Plug-In . SVG Version: 6.00 Build 0)  -->
<svg version="1.1" id="Calque_1" xmlns="http://www.w3.org/2000/svg" xmlns:xlink="http://www.w3.org/1999/xlink" x="0px" y="0px"
	 viewBox="0 0 141.7 141.7" style="enable-background:new 0 0 141.7 141.7;" xml:space="preserve">
<style type="text/css">
	.st0{fill:none;stroke:#010202;stroke-width:0.8704;stroke-linecap:round;stroke-linejoin:round;stroke-miterlimit:10;}
</style>
<g id="XMLID_1_">
	<path id="XMLID_112_" class="st0" d="M124.9,75.4L124.9,75.4L124.8,65c0-1.5-1.1-2.7-2.5-2.7h-17.5V50.8c0-1.5-1.1-2.7-2.5-2.7
		H22.5c-1.4,0-2.5,1.2-2.5,2.7v27.3c0,1.5,1.1,2.7,2.5,2.7h20.8c0,4,3,7.2,6.7,7.2c3.7,0,6.6-3.2,6.7-7.2h45.7
		c0.4,0,0.8-0.1,1.2-0.3c0.4,0.2,0.8,0.3,1.2,0.3h1.4c0,4,3,7.2,6.7,7.2c3.7,0,6.6-3.2,6.7-7.2h2.9h0h2.6c0.9,0,1.6-0.8,1.6-1.8
		v-1.9C126.6,76.2,125.8,75.4,124.9,75.4z"/>
	<path id="XMLID_20_" class="st0" d="M27.7,62.6h-0.4c-2.2,0-4-1.8-4-4v-1.2c0-2.2,1.8-4,4-4h0.4c2.2,0,4,1.8,4,4v1.2
		C31.7,60.8,29.9,62.6,27.7,62.6z"/>
	<path id="XMLID_21_" class="st0" d="M37.7,62.6h-0.4c-2.2,0-4-1.8-4-4v-1.2c0-2.2,1.8-4,4-4h0.4c2.2,0,4,1.8,4,4v1.2
		C41.7,60.8,39.9,62.6,37.7,62.6z"/>
	<path id="XMLID_23_" class="st0" d="M47.8,62.6h-0.4c-2.2,0-4-1.8-4-4v-1.2c0-2.2,1.8-4,4-4h0.4c2.2,0,4,1.8,4,4v1.2
		C51.7,60.8,49.9,62.6,47.8,62.6z"/>
	<path id="XMLID_24_" class="st0" d="M57.8,62.6h-0.4c-2.2,0-4-1.8-4-4v-1.2c0-2.2,1.8-4,4-4h0.4c2.2,0,4,1.8,4,4v1.2
		C61.7,60.8,60,62.6,57.8,62.6z"/>
	<path id="XMLID_25_" class="st0" d="M67.8,62.6h-0.4c-2.2,0-4-1.8-4-4v-1.2c0-2.2,1.8-4,4-4h0.4c2.2,0,4,1.8,4,4v1.2
		C71.8,60.8,70,62.6,67.8,62.6z"/>
	<path id="XMLID_27_" class="st0" d="M77.8,62.6h-0.4c-2.2,0-4-1.8-4-4v-1.2c0-2.2,1.8-4,4-4h0.4c2.2,0,4,1.8,4,4v1.2
		C81.8,60.8,80,62.6,77.8,62.6z"/>
	<path id="XMLID_99_" class="st0" d="M100.4,80.5h-8c-1.3,0-2.4-1.1-2.4-2.4V55.9c0-1.3,1.1-2.4,2.4-2.4h8c1.3,0,2.4,1.1,2.4,2.4
		v22.2C102.8,79.4,101.7,80.5,100.4,80.5z"/>
	<line id="XMLID_108_" class="st0" x1="96.4" y1="53.5" x2="96.4" y2="80.5"/>
	<path id="XMLID_113_" class="st0" d="M83.3,58.6v-1.2c0-2.2,1.8-4,4-4h13.7c2.2,0,4,1.8,4,4v1.2c0,2.2-1.8,4-4,4H87.2
		C85.1,62.6,83.3,60.8,83.3,58.6z"/>
	<line id="XMLID_114_" class="st0" x1="20.2" y1="66.2" x2="89.7" y2="66.2"/>
	<path id="XMLID_116_" class="st0" d="M43.6,79c-0.1-9.4,12.9-9.9,12.9,0"/>
	<path id="XMLID_115_" class="st0" d="M106.3,79c-0.1-9.4,12.9-9.9,12.9,0"/>
</g>
</svg>
