<?xml version="1.0" encoding="utf-8"?>
<!-- Generator: Adobe Illustrator 19.2.1, SVG Export Plug-In . SVG Version: 6.00 Build 0)  -->
<svg version="1.1" id="Calque_1" xmlns="http://www.w3.org/2000/svg" xmlns:xlink="http://www.w3.org/1999/xlink" x="0px" y="0px"
	 viewBox="0 0 141.7 141.7" style="enable-background:new 0 0 141.7 141.7;" xml:space="preserve">
<style type="text/css">
	.st0{fill:none;stroke:#010202;stroke-width:2.0985;stroke-miterlimit:10;}
</style>
<g id="XMLID_101_">
	<path id="XMLID_97_" class="st0" d="M15.3,52.2c2.9-2.4,8.7-6.8,20.8-7.5c12.1-0.6,19,2.2,32.9-8.7c0.9-0.7-5.9-10.2-16.8-11
		c-10.9-0.8-24.3,4.1-31.3,12.3S15.3,52.2,15.3,52.2z"/>
	<path id="XMLID_103_" class="st0" d="M16.1,55.8c1.8-2,7.3-7.5,18.6-7.9s18.8,4.7,35.1-8.3c1.1-0.8,1.9,9.3-7.9,17.6
		s-20.4,12.7-33.3,9C20.2,63.8,15,57,16.1,55.8z"/>
</g>
<g id="XMLID_91_">
	<path id="XMLID_93_" class="st0" d="M35.7,110.9c1.3-3.6,3.8-10.4,13.8-17.2c10-6.9,17.3-8.1,23.5-24.6c0.4-1.1-10.4-5.6-20.1-0.6
		S34.4,84.7,32.7,95.4S35.7,110.9,35.7,110.9z"/>
	<path id="XMLID_92_" class="st0" d="M38.3,113.5c0.6-2.6,2.3-10.2,11.7-16.5s18.5-5.8,25.6-25.4c0.5-1.3,6.5,7,2.5,19.1
		c-4,12.1-10.8,21.5-23.7,25.1C45.9,118.2,37.9,115.1,38.3,113.5z"/>
</g>
<g id="XMLID_94_">
	<path id="XMLID_96_" class="st0" d="M81.5,37.3c3.6,1.2,10.4,3.7,17.4,13.6s8.3,17.2,24.9,23.2c1.1,0.4,5.5-10.5,0.4-20.1
		S107.7,35.6,97,34.1C86.3,32.5,81.5,37.3,81.5,37.3z"/>
	<path id="XMLID_95_" class="st0" d="M78.9,39.8c2.6,0.5,10.2,2.2,16.6,11.5c6.4,9.3,6,18.4,25.7,25.3c1.3,0.4-6.9,6.6-19.1,2.7
		c-12.2-3.9-21.6-10.5-25.4-23.4C74.3,47.6,77.3,39.5,78.9,39.8z"/>
</g>
</svg>
