<?xml version="1.0" encoding="utf-8"?>
<!-- Generator: Adobe Illustrator 19.2.1, SVG Export Plug-In . SVG Version: 6.00 Build 0)  -->
<svg version="1.1" id="Calque_1" xmlns="http://www.w3.org/2000/svg" xmlns:xlink="http://www.w3.org/1999/xlink" x="0px" y="0px"
	 viewBox="0 0 141.7 141.7" style="enable-background:new 0 0 141.7 141.7;" xml:space="preserve">
<style type="text/css">
	.st0{fill:none;stroke:#000000;stroke-width:4;stroke-miterlimit:10;}
</style>
<g>
	<path class="st0" d="M118.9,106.6H26.1c-4.8,0-8.7-3.9-8.7-8.7V47.2c0-4.8,3.9-8.7,8.7-8.7h92.8c4.8,0,8.7,3.9,8.7,8.7v50.7
		C127.6,102.7,123.7,106.6,118.9,106.6L118.9,106.6z"/>
	<polygon points="127.7,92.5 17.3,92.5 17.3,82.2 127.7,82.2 127.7,92.5 	"/>
	<polygon points="49.7,62.3 26.1,62.3 26.1,49.4 49.7,49.4 49.7,62.3 	"/>
	<polygon points="116.2,52.1 73.3,52.1 73.3,49.7 116.2,49.7 116.2,52.1 	"/>
	<polygon points="116.2,58.4 73.3,58.4 73.3,56 116.2,56 116.2,58.4 	"/>
	<polygon points="116.2,64.7 73.3,64.7 73.3,62.3 116.2,62.3 116.2,64.7 	"/>
</g>
</svg>
