<?xml version="1.0" encoding="utf-8"?>
<!-- Generator: Adobe Illustrator 19.2.1, SVG Export Plug-In . SVG Version: 6.00 Build 0)  -->
<svg version="1.1" id="Calque_1" xmlns="http://www.w3.org/2000/svg" xmlns:xlink="http://www.w3.org/1999/xlink" x="0px" y="0px"
	 viewBox="0 0 141.7 141.7" style="enable-background:new 0 0 141.7 141.7;" xml:space="preserve">
<style type="text/css">
	.st0{fill:none;stroke:#000000;stroke-width:3.4775;stroke-miterlimit:10;}
</style>
<g>
	<g>
		<path class="st0" d="M20.9,67.1v15.2c0,13.4,22.4,24.3,50.1,24.3c27.7,0,50.1-10.9,50.1-24.3V67.1"/>
	</g>
	<ellipse class="st0" cx="70.9" cy="61.9" rx="51.2" ry="26.7"/>
	<g>
		<path d="M89.5,74.5c-3,1-8,2.1-14.4,2c-7.8-0.1-14.7-1.7-19.5-4.7c-3.6-2.2-6-5.2-6.8-8.8l-6-0.1l0-2.5l5.5,0.1c0-0.3,0-0.5,0-0.8
			c0-0.8,0.1-1.6,0.2-2.3l-5.7-0.1l0-2.5l6.4,0.1c1.2-3.6,4.1-6.5,8-8.5c4.9-2.6,11.2-4.1,19.1-4c5.7,0.1,10.1,1,12.8,1.8l-2,3.3
			c-2.4-0.8-6.4-1.5-10.8-1.5c-5.2-0.1-9.5,0.9-12.7,2.7c-2.9,1.4-4.9,3.7-5.9,6.4l26.9,0.3l0,2.5l-27.7-0.3
			c-0.1,0.7-0.2,1.4-0.2,2.1c0,0.3,0,0.6,0,0.9l27.9,0.3l0,2.5L57.4,63c0.7,3,2.6,5.2,5.2,6.7c3.5,2,8.4,3,13.6,3.1
			c5.1,0.1,9.5-0.9,11.8-1.6L89.5,74.5z"/>
	</g>
</g>
</svg>
