<?xml version="1.0" encoding="utf-8"?>
<!-- Generator: Adobe Illustrator 19.2.1, SVG Export Plug-In . SVG Version: 6.00 Build 0)  -->
<svg version="1.1" id="Calque_1" xmlns="http://www.w3.org/2000/svg" xmlns:xlink="http://www.w3.org/1999/xlink" x="0px" y="0px"
	 viewBox="0 0 141.7 141.7" style="enable-background:new 0 0 141.7 141.7;" xml:space="preserve">
<style type="text/css">
	.st0{fill:none;stroke:#000000;stroke-width:2;stroke-miterlimit:10;}
</style>
<g>
	<path class="st0" d="M81.7,38c0,0-2.1-2.3-6.3,0c-4.2,2.3-9.7,4-11.2,5.9C62.7,45.8,32.6,78.7,37,80.2s5.1,1.7,9.7-2.3
		c4.6-4,14.3-19.2,15.4-13.7c1.1,5.5,2.9,13.3,1,16c-1.9,2.7-11.6,17.9-12.9,23.4c-1.3,5.5-4.4,29.7-1.7,29.3
		c2.7-0.4,9.3-0.8,10.7-12.9c1.5-12.2-2-12.2,2.6-16.9c4.6-4.8,10.1-12.6,11-10.5c1,2.1,9.5,19,12.4,22.3
		c2.9,3.2,16.9,21.3,18.8,18.1c1.9-3.2,1.9-8.8-2.7-14.8c-4.6-6.1-10.8-16-12.8-23.6c-1.9-7.6-4.4-12-4.4-14.3S84,55.9,84,55.9
		l10.3,7.6l0.2,12.2c0,0,1.1,4.8,5.3,1.3c4.2-3.4,4.2-6.5,4.2-9.3c0-2.9-0.6-9.3-0.6-9.3L81.7,38z"/>
</g>
<circle class="st0" cx="68.9" cy="23.2" r="10.6"/>
</svg>
