<?xml version="1.0" encoding="utf-8"?>
<!-- Generator: Adobe Illustrator 19.2.1, SVG Export Plug-In . SVG Version: 6.00 Build 0)  -->
<svg version="1.1" id="Calque_1" xmlns="http://www.w3.org/2000/svg" xmlns:xlink="http://www.w3.org/1999/xlink" x="0px" y="0px"
	 viewBox="0 0 141.7 141.7" style="enable-background:new 0 0 141.7 141.7;" xml:space="preserve">
<style type="text/css">
	.st0{fill:#3E1BC6;}
	.st1{fill:none;stroke:#FFFFFF;stroke-width:2.2499;stroke-linecap:round;stroke-linejoin:round;stroke-miterlimit:10;}
	.st2{fill:#FFFFFF;stroke:#FFFFFF;stroke-width:2.2499;stroke-linecap:round;stroke-linejoin:round;stroke-miterlimit:10;}
	.st3{fill:#FFFFFF;stroke:#FFFFFF;stroke-width:0.75;stroke-miterlimit:10;}
	.st4{fill:#3E1BC6;stroke:#FFFFFF;stroke-width:1.2779;stroke-linecap:round;stroke-linejoin:round;stroke-miterlimit:10;}
</style>
<rect class="st0" width="141.7" height="141.7"/>
<g>
	<g>
		<polygon class="st1" points="70.5,55.6 114.2,55.6 108,118.6 76.7,118.3 		"/>
		<ellipse class="st2" cx="92.4" cy="55.5" rx="22" ry="3.6"/>
		<g>
			<path class="st3" d="M76.1,26.4c0,0,0.4,0,1.3,0c0.8,0.1,2,0.2,3.4,0.6c0.7,0.2,1.5,0.5,2.2,1c0.7,0.4,1.6,1,2.1,1.9
				c0.6,0.8,0.9,2,0.7,3.1c0,0.3-0.1,0.5-0.1,0.8l-0.2,0.7l-0.3,0.7l-0.3,0.7c-0.2,0.4-0.4,0.9-0.5,1.3c-0.1,0.4-0.3,0.8-0.4,1.3
				c-0.3,0.9-0.5,1.7-0.7,2.5c-0.1,0.8-0.2,1.6-0.2,2.5c0,0.7,0.1,1.5,0.3,2.2c0.1,0.3,0.1,0.7,0.3,1c0.1,0.3,0.2,0.6,0.4,0.8
				c0.2,0.5,0.4,1,0.7,1.3c0.2,0.4,0.4,0.6,0.5,0.8c0.1,0.2,0.2,0.3,0.2,0.3s-0.1-0.1-0.2-0.2c-0.2-0.1-0.4-0.4-0.7-0.7
				c-0.3-0.3-0.6-0.7-1-1.2s-0.7-1.1-1-1.8c-0.3-0.7-0.5-1.5-0.6-2.4c-0.1-0.9-0.1-1.8,0-2.7c0.2-0.9,0.3-1.9,0.6-2.8
				c0.1-0.4,0.3-0.9,0.4-1.4c0.2-0.4,0.4-0.9,0.5-1.3l0.3-0.7l0.2-0.6l0.1-0.6c0-0.2,0.1-0.4,0.1-0.6c0.1-0.8,0-1.6-0.4-2.2
				c-0.4-0.7-1-1.2-1.6-1.6s-1.3-0.8-1.9-1c-1.3-0.6-2.4-0.9-3.2-1.1C76.6,26.5,76.1,26.4,76.1,26.4z"/>
		</g>
		<g>
			<path class="st3" d="M83.1,26.7c0,0,0.4,0,1.3,0c0.8,0.1,2,0.2,3.4,0.6c0.7,0.2,1.5,0.5,2.2,1c0.7,0.4,1.6,1,2.1,1.9
				c0.6,0.8,0.9,2,0.7,3.1c0,0.3-0.1,0.5-0.1,0.8l-0.2,0.7l-0.3,0.7L92,36.2c-0.2,0.4-0.4,0.9-0.5,1.3c-0.1,0.4-0.3,0.8-0.4,1.3
				c-0.3,0.9-0.5,1.7-0.7,2.5s-0.2,1.6-0.2,2.5c0,0.7,0.1,1.5,0.3,2.2c0.1,0.3,0.1,0.7,0.3,1c0.1,0.3,0.2,0.6,0.4,0.8
				c0.2,0.5,0.4,1,0.7,1.3c0.2,0.4,0.4,0.6,0.5,0.8s0.2,0.3,0.2,0.3s-0.1-0.1-0.2-0.2c-0.1-0.1-0.4-0.4-0.7-0.7
				c-0.3-0.3-0.6-0.7-1-1.2s-0.7-1.1-1-1.8c-0.3-0.7-0.5-1.5-0.6-2.4s-0.1-1.8,0-2.7c0.1-0.9,0.3-1.9,0.6-2.8
				c0.1-0.4,0.3-0.9,0.4-1.4c0.1-0.4,0.4-0.9,0.5-1.3L91,35l0.2-0.6l0.1-0.6c0-0.2,0.1-0.4,0.1-0.6c0.1-0.8,0-1.6-0.4-2.2
				c-0.4-0.7-1-1.2-1.6-1.6c-0.6-0.4-1.3-0.8-1.9-1c-1.3-0.6-2.4-0.9-3.2-1.1C83.6,26.8,83.1,26.7,83.1,26.7z"/>
		</g>
		<g>
			<path class="st3" d="M90.2,26.7c0,0,0.4,0,1.3,0c0.8,0.1,2,0.2,3.4,0.6c0.7,0.2,1.5,0.5,2.2,1c0.7,0.4,1.6,1,2.1,1.9
				c0.6,0.8,0.9,2,0.7,3.1c0,0.3-0.1,0.5-0.1,0.8l-0.2,0.7l-0.3,0.7l-0.2,0.6c-0.2,0.4-0.4,0.9-0.5,1.3c-0.1,0.4-0.3,0.8-0.4,1.3
				c-0.3,0.9-0.5,1.7-0.7,2.5c-0.1,0.8-0.2,1.6-0.2,2.5c0,0.7,0.1,1.5,0.3,2.2c0.1,0.3,0.1,0.7,0.3,1c0.1,0.3,0.2,0.6,0.4,0.8
				c0.2,0.5,0.4,1,0.7,1.3c0.2,0.4,0.4,0.6,0.5,0.8s0.2,0.3,0.2,0.3s-0.1-0.1-0.2-0.2s-0.4-0.4-0.7-0.7c-0.3-0.3-0.6-0.7-1-1.2
				c-0.4-0.5-0.7-1.1-1-1.8c-0.3-0.7-0.5-1.5-0.6-2.4c-0.1-0.9-0.1-1.8,0-2.7c0.1-0.9,0.3-1.9,0.6-2.8c0.1-0.4,0.3-0.9,0.4-1.4
				c0.1-0.4,0.4-0.9,0.5-1.3l0.3-0.7l0.2-0.6l0.1-0.6c0-0.2,0.1-0.4,0.1-0.6c0.1-0.8,0-1.6-0.4-2.2c-0.4-0.7-1-1.2-1.6-1.6
				c-0.6-0.4-1.3-0.8-1.9-1c-1.3-0.6-2.4-0.9-3.2-1.1C90.7,26.8,90.2,26.7,90.2,26.7z"/>
		</g>
		<path class="st4" d="M106.6,57.1c0,1.7-6.4,2-14.2,2s-14-0.3-14-2s6.3-3.1,14.1-3.1S106.6,55.4,106.6,57.1z"/>
	</g>
	<line class="st1" x1="132.1" y1="35.6" x2="57" y2="110.7"/>
</g>
</svg>
