<?xml version="1.0" encoding="utf-8"?>
<!-- Generator: Adobe Illustrator 19.2.1, SVG Export Plug-In . SVG Version: 6.00 Build 0)  -->
<svg version="1.1" id="Calque_1" xmlns="http://www.w3.org/2000/svg" xmlns:xlink="http://www.w3.org/1999/xlink" x="0px" y="0px"
	 viewBox="0 0 141.7 141.7" style="enable-background:new 0 0 141.7 141.7;" xml:space="preserve">
<style type="text/css">
	.st0{fill:none;stroke:#000000;stroke-width:3;stroke-linecap:round;stroke-linejoin:round;stroke-miterlimit:10;}
	.st1{fill:#FFFFFF;stroke:#000000;stroke-width:3;stroke-linecap:round;stroke-linejoin:round;stroke-miterlimit:10;}
	.st2{stroke:#000000;stroke-width:1.7039;stroke-linecap:round;stroke-linejoin:round;stroke-miterlimit:10;}
</style>
<g>
	<polygon class="st0" points="41.7,49.5 99.9,49.5 91.7,133.5 49.9,133 	"/>
	<ellipse class="st1" cx="70.9" cy="49.3" rx="29.4" ry="4.8"/>
	<g>
		<path d="M49.2,10.5c0,0,0.6,0,1.8,0c1.1,0.1,2.7,0.3,4.6,0.8c0.9,0.3,2,0.7,3,1.3c1,0.6,2.1,1.4,2.8,2.5c0.8,1.1,1.2,2.7,1,4.1
			c0,0.4-0.1,0.7-0.2,1.1l-0.3,1l-0.4,1l-0.4,0.9c-0.3,0.6-0.5,1.2-0.7,1.7c-0.2,0.6-0.4,1.1-0.6,1.7c-0.4,1.2-0.7,2.3-0.9,3.4
			c-0.2,1.1-0.3,2.2-0.3,3.3c0,1,0.2,2,0.4,2.9c0.1,0.4,0.2,0.9,0.4,1.3c0.1,0.4,0.3,0.8,0.5,1.1c0.3,0.7,0.6,1.3,0.9,1.8
			c0.3,0.5,0.5,0.8,0.7,1.1c0.2,0.3,0.3,0.4,0.3,0.4s-0.1-0.1-0.3-0.3c-0.2-0.2-0.6-0.5-0.9-0.9c-0.4-0.4-0.8-0.9-1.3-1.6
			c-0.5-0.7-0.9-1.5-1.3-2.4c-0.4-0.9-0.7-2-0.8-3.2c-0.1-1.2-0.1-2.4,0-3.6c0.2-1.2,0.4-2.5,0.8-3.7c0.2-0.6,0.4-1.2,0.6-1.9
			c0.2-0.6,0.5-1.2,0.7-1.8l0.4-0.9l0.3-0.8l0.2-0.8c0-0.3,0.1-0.5,0.1-0.8c0.1-1.1,0-2.1-0.6-3c-0.5-0.9-1.3-1.6-2.1-2.2
			c-0.8-0.6-1.7-1.1-2.6-1.4c-1.7-0.8-3.2-1.2-4.3-1.5C49.8,10.6,49.2,10.5,49.2,10.5z"/>
	</g>
	<g>
		<path d="M58.5,10.9c0,0,0.6,0,1.8,0c1.1,0.1,2.7,0.3,4.6,0.8c0.9,0.3,2,0.7,3,1.3c1,0.6,2.1,1.4,2.8,2.5c0.8,1.1,1.2,2.7,1,4.1
			c0,0.4-0.1,0.7-0.2,1.1l-0.3,1l-0.4,1l-0.4,0.9c-0.3,0.6-0.5,1.2-0.7,1.7c-0.2,0.6-0.4,1.1-0.6,1.7c-0.4,1.2-0.7,2.3-0.9,3.4
			c-0.2,1.1-0.3,2.2-0.3,3.3c0,1,0.2,2,0.4,2.9c0.1,0.4,0.2,0.9,0.4,1.3c0.1,0.4,0.3,0.8,0.5,1.1c0.3,0.7,0.6,1.3,0.9,1.8
			c0.3,0.5,0.5,0.8,0.7,1.1c0.2,0.3,0.3,0.4,0.3,0.4s-0.1-0.1-0.3-0.3c-0.2-0.2-0.6-0.5-0.9-0.9c-0.4-0.4-0.8-0.9-1.3-1.6
			c-0.5-0.7-0.9-1.5-1.3-2.4c-0.4-0.9-0.7-2-0.8-3.2c-0.1-1.2-0.1-2.4,0-3.6c0.2-1.2,0.4-2.5,0.8-3.7c0.2-0.6,0.4-1.2,0.6-1.9
			c0.2-0.6,0.5-1.2,0.7-1.8l0.4-0.9l0.3-0.8l0.2-0.8c0-0.3,0.1-0.5,0.1-0.8c0.1-1.1,0-2.1-0.6-3c-0.5-0.9-1.3-1.6-2.1-2.2
			c-0.8-0.6-1.7-1.1-2.6-1.4c-1.7-0.8-3.2-1.2-4.3-1.5C59.1,11,58.5,10.9,58.5,10.9z"/>
	</g>
	<g>
		<path d="M68,10.9c0,0,0.6,0,1.8,0c1.1,0.1,2.7,0.3,4.6,0.8c0.9,0.3,2,0.7,3,1.3c1,0.6,2.1,1.4,2.8,2.5c0.8,1.1,1.2,2.7,1,4.1
			c0,0.4-0.1,0.7-0.2,1.1l-0.3,1l-0.4,1L80,23.5c-0.3,0.6-0.5,1.2-0.7,1.7c-0.2,0.6-0.4,1.1-0.6,1.7c-0.4,1.2-0.7,2.3-0.9,3.4
			c-0.2,1.1-0.3,2.2-0.3,3.3c0,1,0.2,2,0.4,2.9c0.1,0.4,0.2,0.9,0.4,1.3c0.1,0.4,0.3,0.8,0.5,1.1c0.3,0.7,0.6,1.3,0.9,1.8
			c0.3,0.5,0.5,0.8,0.7,1.1c0.2,0.3,0.3,0.4,0.3,0.4s-0.1-0.1-0.3-0.3c-0.2-0.2-0.6-0.5-0.9-0.9c-0.4-0.4-0.8-0.9-1.3-1.6
			c-0.5-0.7-0.9-1.5-1.3-2.4c-0.4-0.9-0.7-2-0.8-3.2c-0.1-1.2-0.1-2.4,0-3.6c0.2-1.2,0.4-2.5,0.8-3.7c0.2-0.6,0.4-1.2,0.6-1.9
			c0.2-0.6,0.5-1.2,0.7-1.8l0.4-0.9l0.3-0.8l0.2-0.8c0-0.3,0.1-0.5,0.1-0.8c0.1-1.1,0-2.1-0.6-3c-0.5-0.9-1.3-1.6-2.1-2.2
			c-0.8-0.6-1.7-1.1-2.6-1.4c-1.7-0.8-3.2-1.2-4.3-1.5C68.6,11,68,10.9,68,10.9z"/>
	</g>
	<path class="st2" d="M89.8,51.5c0,2.3-8.5,2.7-18.9,2.7s-18.7-0.4-18.7-2.7c0-2.3,8.4-4.1,18.8-4.1S89.8,49.2,89.8,51.5z"/>
</g>
</svg>
