<?xml version="1.0" encoding="utf-8"?>
<!-- Generator: Adobe Illustrator 19.2.1, SVG Export Plug-In . SVG Version: 6.00 Build 0)  -->
<svg version="1.1" id="Calque_1" xmlns="http://www.w3.org/2000/svg" xmlns:xlink="http://www.w3.org/1999/xlink" x="0px" y="0px"
	 viewBox="0 0 141.7 141.7" style="enable-background:new 0 0 141.7 141.7;" xml:space="preserve">
<style type="text/css">
	.st0{fill:none;stroke:#000000;stroke-width:3.4213;stroke-linecap:round;stroke-linejoin:round;stroke-miterlimit:10;}
	.st1{fill:#FFFFFF;stroke:#000000;stroke-width:2.2412;stroke-linecap:round;stroke-linejoin:round;stroke-miterlimit:10;}
	.st2{fill:none;stroke:#000000;stroke-width:2.2808;stroke-linecap:round;stroke-linejoin:round;stroke-miterlimit:10;}
	.st3{fill:none;stroke:#000000;stroke-width:6.7303;stroke-linecap:round;stroke-linejoin:round;stroke-miterlimit:10;}
</style>
<g>
	<polygon class="st0" points="51.5,74.1 36,124.8 102,124.2 87.8,73.7 	"/>
	<polygon class="st0" points="22.7,35.1 99.5,35 88.8,68.8 50.1,69.3 	"/>
	
		<rect x="50.3" y="70.2" transform="matrix(1 -5.611834e-03 5.611834e-03 1 -0.4137 0.3916)" class="st1" width="38.5" height="7.3"/>
	<path class="st0" d="M38.2,34.5c0.3-4.4,10.3-14,29.4-14c19.1,0,30.6,8.7,31.1,13.6C87.8,34.2,38.2,34.5,38.2,34.5z"/>
	
		<ellipse transform="matrix(1 -5.611834e-03 5.611834e-03 1 -8.564183e-02 0.3838)" class="st2" cx="68.4" cy="15.5" rx="4.5" ry="4.4"/>
	<path class="st3" d="M99.5,42.2c0,0,18.4,5.3,19.5,38c1,28.3-16.2,30.8-17.6,31.7"/>
</g>
</svg>
