<?xml version="1.0" encoding="utf-8"?>
<!-- Generator: Adobe Illustrator 19.2.1, SVG Export Plug-In . SVG Version: 6.00 Build 0)  -->
<svg version="1.1" id="Calque_1" xmlns="http://www.w3.org/2000/svg" xmlns:xlink="http://www.w3.org/1999/xlink" x="0px" y="0px"
	 viewBox="0 0 141.7 141.7" style="enable-background:new 0 0 141.7 141.7;" xml:space="preserve">
<style type="text/css">
	.st0{fill:none;stroke:#000000;stroke-width:1.6664;stroke-miterlimit:10;}
</style>
<circle id="XMLID_13_" class="st0" cx="29.2" cy="78.3" r="13.2"/>
<circle id="XMLID_12_" class="st0" cx="29.2" cy="78.3" r="8.7"/>
<circle id="XMLID_11_" class="st0" cx="29.2" cy="78.3" r="4.2"/>
<circle id="XMLID_10_" class="st0" cx="113.8" cy="78.3" r="13.2"/>
<circle id="XMLID_9_" class="st0" cx="113.8" cy="78.3" r="8.7"/>
<circle id="XMLID_8_" class="st0" cx="113.8" cy="78.3" r="4.2"/>
<line id="XMLID_7_" class="st0" x1="41.7" y1="82.5" x2="100.6" y2="82.5"/>
<path id="XMLID_6_" class="st0" d="M15.5,79.8c-3.9-0.9-6.1-1-7.2-1.6c-1.1-0.6-1.8-1.3-1.8-4.2c0-2.9-1-9.6,0-11.4
	c1-1.9,0.9-2.5,1.5-3.8c0.6-1.3,1.3-3,5.2-3.6c3.9-0.6,9.9-0.5,11.2-1.6c1.3-1.1,10.2-8.9,11.9-10.2c1.7-1.2,5.9-3.2,8.7-3.2
	s32.1,0.2,33.7,0c1.6-0.2,14,15.7,15.1,15.7c1.1,0,22.6,0.9,29.1,3.1c6.5,2.2,9.9,3.6,10.5,5.9c0.6,2.2,0.7,2.4,0.7,4.5
	c0,2.1,0,9,0,9s3.4,4.5,0,4.5c-3.4,0-7.5,0-7.5,0"/>
<path id="XMLID_5_" class="st0" d="M41,55.9c3.5,0.1,38.1,0.9,39.2,0c1.1-0.9,0.8-1.9-1.4-4.6c-2.2-2.7-4.1-5.9-6.1-7.3
	c-2-1.4-3-1.6-4.6-1.6c-1.6,0-17.7-0.4-19.5,0c-1.8,0.4-4,2-8.6,6.7S37.8,55.9,41,55.9z"/>
<path id="XMLID_4_" class="st0" d="M80.9,42.3c-2.6,0.2-4,1.4-2.2,3.5c1.7,2.1,5.9,6.9,7.1,8.5c1.2,1.6,4.3,1.8,8.1,1.6"/>
<line id="XMLID_3_" class="st0" x1="46.8" y1="71.6" x2="98.3" y2="71.6"/>
</svg>
