<?xml version="1.0" encoding="utf-8"?>
<!-- Generator: Adobe Illustrator 19.2.1, SVG Export Plug-In . SVG Version: 6.00 Build 0)  -->
<svg version="1.1" id="Calque_1" xmlns="http://www.w3.org/2000/svg" xmlns:xlink="http://www.w3.org/1999/xlink" x="0px" y="0px"
	 viewBox="0 0 141.7 141.7" style="enable-background:new 0 0 141.7 141.7;" xml:space="preserve">
<style type="text/css">
	.st0{fill:none;stroke:#010202;stroke-width:1.9814;stroke-linecap:round;stroke-linejoin:round;stroke-miterlimit:10;}
</style>
<g id="XMLID_18_">
	<circle id="XMLID_111_" class="st0" cx="35.5" cy="80.8" r="23.8"/>
	<circle id="XMLID_110_" class="st0" cx="105.8" cy="80.8" r="24.2"/>
	<path id="XMLID_109_" class="st0" d="M50.1,40.7c0,0,2.4,4.6,5.4,10.2c6.2,11.7,15.8,29.6,15.2,29.9c-0.8,0.4-24.8-0.1-35.2,0
		l19.9-29.6"/>
	<path id="XMLID_106_" class="st0" d="M44.2,40.2c2.3-0.1,14.3,0,14.3,0"/>
	<path id="XMLID_105_" class="st0" d="M105.8,80.8l-21-40.6c0,0,12.3-0.2,13.7,0c5.1-0.1,8,8.6-1.2,8.5"/>
	<polyline id="XMLID_104_" class="st0" points="67.1,91.8 70.7,80.8 89.1,49.9 56.6,50.7 	"/>
	<line id="XMLID_100_" class="st0" x1="63.7" y1="92.6" x2="71.7" y2="92.6"/>
</g>
</svg>
